<svg width="25" height="25" viewBox="0 0 25 25" fill="none" xmlns="http://www.w3.org/2000/svg">
<path d="M21.85 12.08H12.68V14.81H19.19C18.86 18.62 15.69 20.25 12.69 20.25C8.86003 20.25 5.50003 17.23 5.50003 12.98C5.50003 8.87998 8.70003 5.70998 12.7 5.70998C15.79 5.70998 17.6 7.67998 17.6 7.67998L19.5 5.69998C19.5 5.69998 17.06 2.97998 12.6 2.97998C6.92003 2.97998 2.53003 7.77998 2.53003 12.98C2.53003 18.03 6.66003 22.98 12.75 22.98C18.1 22.98 22 19.31 22 13.89C22 12.74 21.85 12.08 21.85 12.08Z" fill="#DB4437"/>
</svg>
